<svg width="32" height="32" viewBox="0 0 32 32" xmlns="http://www.w3.org/2000/svg">
  <defs>
    <linearGradient id="z" x1="0" y1="0" x2="0" y2="1">
      <stop offset="0" stop-color="#3d82ff" />
      <stop offset="1" stop-color="#1f6bff" />
    </linearGradient>
  </defs>
  <rect width="32" height="32" rx="7" fill="url(#z)" />
  <g transform="translate(3.5 4.7) scale(0.82)" fill="#ffffff">
    <path d="M4 7.5c0-1.4 1.1-2.5 2.5-2.5.9 0 1.8.5 2.2 1.3l5 9 9.2-9.4c1-1 2.6-1 3.6 0s1 2.6 0 3.6L16.2 21.8c-.6.6-1.4.9-2.2.8-.9-.1-1.6-.6-1.9-1.4L4.3 8.8C4.1 8.4 4 8 4 7.5z" />
  </g>
</svg>
